<?xml version="1.0" standalone="no"?>
<!DOCTYPE svg PUBLIC "-//W3C//DTD SVG 20010904//EN"
 "http://www.w3.org/TR/2001/REC-SVG-20010904/DTD/svg10.dtd">
<svg version="1.0" xmlns="http://www.w3.org/2000/svg"
 width="701.000000pt" height="650.000000pt" viewBox="0 0 701.000000 650.000000"
 preserveAspectRatio="xMidYMid meet">

<g transform="translate(0.000000,650.000000) scale(0.100000,-0.100000)"
fill="#FF81B1" stroke="none">
<path d="M3250 6484 c-19 -2 -80 -9 -135 -15 -641 -69 -1278 -333 -1800 -745
-131 -104 -444 -415 -535 -532 -160 -206 -276 -384 -381 -587 -504 -971 -527
-2112 -61 -3117 150 -324 385 -660 636 -912 267 -266 526 -439 771 -511 120
-36 290 -45 397 -21 251 56 468 262 534 506 22 85 23 242 0 335 -39 163 -162
353 -293 454 -143 111 -279 155 -607 196 -231 29 -316 51 -378 98 -62 48 -88
91 -88 147 0 54 22 93 124 218 99 122 101 174 11 293 -30 40 -55 82 -55 95 0
24 27 45 82 63 74 24 85 82 37 185 -19 41 -28 73 -24 85 3 11 30 32 58 47 109
54 162 113 153 171 -3 19 -28 59 -65 104 -61 72 -121 176 -121 209 0 13 26 29
88 55 353 152 480 249 612 471 35 60 82 136 104 169 43 65 143 185 155 185 4
0 -5 -62 -21 -137 -115 -561 -54 -1086 179 -1545 103 -204 237 -384 402 -540
89 -85 225 -192 291 -229 l35 -20 -3 -165 c-4 -183 10 -299 53 -449 148 -510
559 -890 1093 -1007 140 -31 404 -31 549 0 285 61 554 194 813 400 124 99 345
321 447 449 264 332 471 770 593 1252 119 472 136 989 49 1475 -176 985 -781
1861 -1642 2378 -413 248 -859 403 -1367 473 -109 16 -604 29 -690 19z m630
-210 c1357 -153 2479 -1130 2825 -2459 200 -771 109 -1607 -256 -2337 -133
-267 -256 -441 -461 -653 -303 -314 -599 -500 -927 -583 -97 -25 -122 -27
-296 -26 -174 0 -198 3 -287 27 -275 76 -521 239 -683 456 -113 149 -191 324
-230 516 -21 102 -33 335 -17 335 6 0 46 -14 88 -30 177 -71 361 -104 569
-104 295 1 528 71 769 231 122 81 190 146 537 509 l269 281 97 6 c530 32 719
469 448 1035 -191 398 -579 796 -949 973 -124 59 -204 79 -322 79 l-90 0 -35
36 c-74 78 -220 165 -329 198 -57 17 -184 23 -236 10 -45 -11 -120 -51 -159
-85 -102 -90 -146 -261 -121 -474 l6 -60 -186 -195 c-399 -417 -494 -521 -542
-591 -140 -208 -205 -420 -206 -669 -2 -261 33 -365 122 -365 44 0 78 23 93
64 6 15 4 52 -7 110 -22 116 -15 313 15 431 26 100 102 262 160 340 23 30 171
191 329 357 l287 302 13 -37 c19 -55 68 -254 88 -357 24 -125 22 -319 -4 -451
-28 -137 -121 -458 -135 -463 -75 -27 -246 -137 -348 -224 -168 -145 -274
-299 -359 -522 -7 -19 -14 -24 -23 -18 -195 147 -340 289 -449 443 -127 179
-239 425 -292 640 -45 186 -59 331 -53 565 6 237 21 346 89 619 l42 169 81 38
c45 21 210 81 367 133 393 129 504 184 645 319 77 73 119 137 144 218 24 77
24 121 -1 202 -59 191 -283 288 -526 227 -340 -85 -663 -436 -835 -907 -27
-74 -40 -95 -64 -109 -60 -34 -172 -122 -234 -185 -85 -86 -133 -152 -238
-325 -49 -81 -111 -169 -139 -198 -59 -60 -187 -135 -363 -212 -225 -99 -251
-123 -251 -226 0 -74 36 -169 99 -265 l49 -73 -32 -14 c-43 -18 -95 -72 -117
-121 -21 -45 -25 -138 -9 -181 10 -25 7 -31 -35 -72 -99 -98 -97 -240 5 -356
17 -18 30 -37 30 -40 0 -4 -30 -46 -67 -94 -91 -120 -125 -194 -124 -274 1
-106 44 -201 129 -280 99 -93 220 -134 482 -163 238 -27 345 -52 450 -105 191
-96 330 -317 330 -525 -1 -132 -43 -230 -144 -331 -271 -271 -655 -197 -1125
218 -478 423 -828 1051 -966 1733 -39 193 -56 346 -62 560 -16 557 99 1081
347 1575 264 526 643 953 1130 1275 655 432 1422 617 2200 529z m-197 -1028
c85 -36 120 -131 79 -212 -44 -85 -169 -186 -316 -254 -84 -39 -606 -213 -614
-205 -8 8 78 172 138 262 134 201 298 341 475 404 62 22 192 25 238 5z m868
-672 c60 -17 124 -52 182 -97 l37 -29 -37 -27 c-169 -123 -261 -360 -222 -577
36 -203 133 -376 323 -573 293 -303 569 -393 807 -265 154 83 264 288 244 452
-19 156 -109 307 -277 468 -179 171 -342 252 -492 242 -153 -10 -251 -108
-264 -264 -21 -270 285 -605 552 -604 28 1 80 11 116 23 54 18 68 28 84 58 23
42 17 79 -20 116 -22 22 -31 24 -72 19 -143 -19 -150 -19 -210 10 -127 61
-252 230 -252 341 0 66 10 86 49 103 69 28 203 -31 333 -148 161 -145 248
-278 256 -392 8 -103 -55 -208 -154 -256 -49 -24 -63 -26 -132 -22 -131 9
-255 80 -408 234 -109 110 -176 201 -229 309 -54 111 -69 180 -63 281 6 105
42 186 112 253 65 61 115 87 198 102 55 10 76 9 139 -5 163 -36 365 -165 572
-366 249 -241 408 -474 489 -720 29 -86 32 -107 32 -225 1 -123 -1 -133 -27
-187 -67 -136 -196 -192 -442 -192 -163 0 -255 12 -533 65 -270 52 -450 66
-624 50 -73 -6 -162 -18 -196 -25 -63 -14 -64 -14 -59 8 3 11 21 82 41 156 97
368 89 599 -40 1037 -98 331 -110 412 -80 516 37 127 128 172 267 131z m439
-2029 c58 -7 173 -27 255 -44 83 -16 178 -33 213 -37 34 -3 62 -9 62 -11 0 -7
-421 -447 -483 -507 -88 -83 -206 -165 -311 -217 -55 -27 -108 -49 -117 -49
-21 0 -174 160 -222 233 -101 152 -134 311 -106 502 l11 75 48 14 c48 14 181
42 235 49 75 10 320 5 415 -8z m-920 -260 c0 -220 70 -399 228 -582 l70 -81
-30 -6 c-49 -10 -230 -7 -314 5 -43 6 -119 21 -169 34 -91 24 -261 90 -270
106 -9 13 33 128 77 209 46 87 126 188 207 262 60 55 181 148 194 148 4 0 7
-43 7 -95z"/>
</g>
</svg>
